<svg
    viewBox="0 0 128 128"
    width="128"
    height="128"
    xmlns="http://www.w3.org/2000/svg"
    xmlns:xlink="http://www.w3.org/1999/xlink"
>
    <defs>
        <symbol id="asterisk" overflow="visible">
            <path
                d="M 0 0m 12.240001 2.8560002 q -0.93840027 0 -1.3872004 0.44879985 q -0.4488001 0.4488001 -0.4488001 1.3872004 v 5.5895996 l -4.8552003 -2.8151999 q -0.2855997 -0.1631999 -0.55079985 -0.24480009 q -0.26520014 -0.08159971 -0.50999975 -0.08159971 q -0.36720037 0 -0.67320037 0.204 q -0.306 0.204 -0.55079985 0.50999975 q -0.24480009 0.30599976 -0.38760018 0.69360065 q -0.14279985 0.38759995 -0.14279985 0.71399975 q 0 0.4488001 0.24479985 0.7751999 q 0.24480009 0.3263998 0.73440003 0.61200047 l 4.8552 2.8151999 l -4.8552 2.8152008 q -0.48959994 0.28559875 -0.73440003 0.6119995 q -0.24479985 0.32639885 -0.24479985 0.7751999 q 0 0.32639885 0.14279985 0.7140007 q 0.1428001 0.38759995 0.38760018 0.6935997 q 0.24479985 0.30599976 0.55079985 0.5100002 q 0.306 0.20399857 0.67320037 0.20399857 q 0.24479961 0 0.50999975 -0.08160019 q 0.26520014 -0.08159828 0.55079985 -0.24479866 l 4.8552003 -2.8152008 v 5.5895996 q 0 0.93840027 0.4488001 1.3872013 q 0.4488001 0.44879913 1.3872004 0.44879913 q 0.9383993 0 1.3871994 -0.44879913 q 0.4488001 -0.44880104 0.4488001 -1.3872013 v -5.5895996 l 4.8552 2.8152008 q 0.28560066 0.16320038 0.5508003 0.24479866 q 0.26519966 0.08160019 0.5100002 0.08160019 q 0.36720085 0 0.6732006 -0.20399857 q 0.30599976 -0.20400047 0.5508003 -0.5100002 q 0.24479866 -0.30599976 0.38759995 -0.6935997 q 0.14279938 -0.38760185 0.14279938 -0.7140007 q 0 -0.44880104 -0.24480057 -0.7751999 q -0.24479866 -0.32640076 -0.7343998 -0.6119995 l -4.8552 -2.8152008 l 4.8552 -2.8151999 q 0.48960114 -0.28560066 0.7343998 -0.61200047 q 0.24480057 -0.3263998 0.24480057 -0.7751999 q 0 -0.3263998 -0.14279938 -0.71399975 q -0.14280128 -0.3876009 -0.38759995 -0.69360065 q -0.24480057 -0.30599976 -0.5508003 -0.50999975 q -0.30599976 -0.204 -0.6732006 -0.204 q -0.24480057 0 -0.5100002 0.08159971 q -0.26519966 0.08160019 -0.5508003 0.24480009 l -4.8552 2.8151999 v -5.5895996 q 0 -0.93840027 -0.4488001 -1.3872004 q -0.4488001 -0.44879985 -1.3871994 -0.44879985 Z "
            />
        </symbol>
        <symbol id="at" overflow="visible">
            <path
                d="M 0 0m 35.564003 14.280001 q -1.564003 0 -2.3460007 0.74800014 q -0.7820015 0.74800014 -0.7820015 2.3119993 q 0 5.4400005 -0.7819996 9.792002 q -0.7819996 4.3519993 -2.5839996 7.3780003 q -1.802 3.026001 -4.658001 4.658001 q -2.855999 1.632 -7.0039997 1.632 q -3.0600004 0 -5.712 -0.95199966 q -2.6520004 -0.95199966 -5.1680007 -3.196003 q -1.224 -1.0879974 -2.584 -0.91799927 q -1.3600001 0.17000198 -2.3120003 1.2579994 q -0.47600007 0.54400253 -0.71400005 1.156002 q -0.23799998 0.6119995 -0.204 1.223999 q 0.03399998 0.6119995 0.33999997 1.1900024 q 0.3060001 0.5779991 0.85 1.053997 q 3.2640002 2.8560028 6.936 4.080002 q 3.672001 1.223999 7.9560013 1.223999 q 5.9160004 0 10.030001 -2.040001 q 4.1140003 -2.039997 6.7320004 -5.8479996 q 2.618 -3.8079987 3.8079987 -9.316 q 1.1900024 -5.5079994 1.1900024 -12.376001 q 0 -1.5639992 -0.7140007 -2.3119993 q -0.7140007 -0.74800014 -2.2779999 -0.74800014 Z m -0.06800079 -14.960001 q -3.5360012 0 -6.5960007 0.23800004 q -3.0599995 0.23800002 -5.3379993 1.5640001 q -2.2780018 1.3260001 -3.604002 4.216 q -1.3259983 2.8900003 -1.3259983 8.262 q 0 2.38 -0.10200119 4.4540005 q -0.10199928 2.0739994 -0.5100002 3.672001 q -0.40799904 1.5979996 -1.1560001 2.5159988 q -0.7479992 0.9180012 -2.04 0.9180012 q -1.2919998 0 -2.2779999 -0.9180012 q -0.98600006 -0.91799927 -1.6659994 -2.4819984 q -0.6800003 -1.5640011 -1.0200005 -3.7400017 q -0.34000015 -2.1759996 -0.34000015 -4.7599993 q 0 -1.5640001 0.17000008 -2.9920006 q 0.17000008 -1.4280005 0.5100002 -2.4820004 q 0.34000015 -1.0539999 0.9180002 -1.6999998 q 0.57800007 -0.6459999 1.4619999 -0.6459999 q 1.1560001 0 1.8699999 -0.7140002 q 0.71399975 -0.7140002 0.71399975 -2.2100003 q 0 -1.7 -0.95199966 -2.448 q -0.95199966 -0.7480001 -3.1280003 -0.7480001 q -1.4960003 0 -2.8900003 0.544 q -1.394 0.544 -2.4819999 1.9720001 q -1.0880003 1.4280001 -1.7000003 3.9440002 q -0.612 2.5160003 -0.612 6.4600005 q 0 4.828 0.7140002 8.398 q 0.71399975 3.5700016 2.21 5.9160004 q 1.4960003 2.3460007 3.7060003 3.5360012 q 2.21 1.1900005 5.134 1.1900005 q 3.604001 0 5.542001 -1.5640011 q 1.9379997 -1.5639992 2.856001 -4.08 q 0.91799927 -2.5160007 1.053999 -5.6780014 q 0.13599968 -3.1619987 0.13599968 -6.358 q 0 -3.0599995 0.98600006 -4.726 q 0.98600006 -1.6660004 2.5160007 -2.414 q 1.5300007 -0.74800014 3.434 -0.8840003 q 1.9040012 -0.13599968 3.8080006 -0.13599968 q 1.5639992 0 2.3120003 -0.74800014 q 0.7480011 -0.74800014 0.7480011 -2.3120003 q 0 -1.5640001 -0.7480011 -2.312 q -0.7480011 -0.7480001 -2.3120003 -0.7480001 Z "
            />
        </symbol>
    </defs>

    <use xlink:href="#at" transform="matrix(1.7239 0 0 -1.7239 50.83 98.24)" fill="#17160f" />

    <use xlink:href="#asterisk" transform="matrix(1.4366 0 0 -1.4366 12.52 35.03)" fill="#a70e16" />
</svg>
